<svg width="22" height="22" viewBox="0 0 22 22" fill="none" xmlns="http://www.w3.org/2000/svg">
<rect x="0.34375" y="0.34375" width="21.3125" height="21.3125" rx="10.6562" stroke="white" stroke-width="0.6875"/>
<path d="M7.44 12.44C7.22667 12.44 7.04533 12.3707 6.896 12.232C6.75733 12.0827 6.688 11.896 6.688 11.672C6.688 11.4587 6.75733 11.288 6.896 11.16C7.04533 11.0213 7.22667 10.952 7.44 10.952H13.984C14.1973 10.952 14.3733 11.0213 14.512 11.16C14.6613 11.2987 14.736 11.48 14.736 11.704C14.736 11.9067 14.6613 12.0827 14.512 12.232C14.3733 12.3707 14.1973 12.44 13.984 12.44H7.44ZM10.688 15.672C10.4427 15.672 10.2347 15.592 10.064 15.432C9.904 15.272 9.824 15.064 9.824 14.808V8.392C9.824 8.14667 9.90933 7.944 10.08 7.784C10.2507 7.624 10.4587 7.544 10.704 7.544C10.96 7.544 11.1627 7.624 11.312 7.784C11.472 7.944 11.552 8.14667 11.552 8.392V14.808C11.552 15.064 11.472 15.272 11.312 15.432C11.152 15.592 10.944 15.672 10.688 15.672Z" fill="white"/>
</svg>
